<svg width="113" height="75" viewBox="0 0 113 75" fill="none" xmlns="http://www.w3.org/2000/svg">
<g clip-path="url(#clip0_3303_81)">
<path d="M99.5532 53.3184L98.3271 58.7407H84.3626L83.7515 61.45H97.7121L96.482 66.8723H82.5214L81.9064 69.5855H95.8708L94.6408 75.0079H72.9766L77.889 53.3184H99.5532Z" fill="#A2E7C6"/>
<path d="M70.8278 53.3184H51.1663L46.2539 75.0079H65.9154C68.75 75.0079 71.5413 72.8515 72.1445 70.1897L74.8728 58.1404C75.476 55.4787 73.6664 53.3223 70.8278 53.3223V53.3184ZM63.0649 68.6851H55.3888L57.4389 59.6411H65.1151C66.0613 59.6411 66.6645 60.36 66.4634 61.2486L65.1426 67.0816C64.9415 67.9702 64.0111 68.689 63.0649 68.689V68.6851Z" fill="#A2E7C6"/>
<path d="M44.9606 53.3184H28.7213C26.3558 53.3184 24.0336 55.1153 23.5329 57.3348L19.5312 75.0079H27.2349L28.8711 67.7768H38.2622L36.626 75.0079H44.3298L48.3315 57.3348C48.8321 55.1153 47.3261 53.3184 44.9606 53.3184ZM30.3495 61.2486C30.5506 60.36 31.481 59.6411 32.4272 59.6411H38.3923C39.3385 59.6411 39.9417 60.36 39.7407 61.2486L39.4883 62.3583H30.0972L30.3495 61.2486Z" fill="#A2E7C6"/>
<path d="M80.6056 19.2404L79.9235 20.3344C74.5064 28.9636 68.4034 29.6864 63.1126 29.6864H61.1374L62.7498 22.0919C61.4567 22.4947 58.6574 24.3745 56.7375 25.662C53.5282 27.8223 50.7566 29.6864 49.0456 29.6864H47.0743L48.1703 24.5167C43.2658 29.3585 37.6556 29.6902 33.5672 29.6902C33.236 29.6902 32.9127 29.6864 32.5973 29.6864H32.207L32.7077 27.3168H33.102C38.3494 27.3168 44.2948 27.3168 49.1875 19.8802L49.3413 19.6472H51.5688L49.9603 27.2259C51.1824 26.8152 53.8397 25.0301 55.669 23.798C58.9886 21.5706 61.847 19.6472 63.6566 19.6472H65.6279L64.0035 27.3049C68.9987 27.2299 73.5169 26.4519 77.9286 19.4221L78.6146 18.3281L80.6016 19.2404H80.6056Z" fill="#A2E7C6"/>
<path d="M76.9727 11.0607C78.7114 11.0607 79.8271 12.4784 79.4565 14.2201L73.4244 42.655C73.0538 44.3966 71.3388 45.8144 69.6002 45.8144H34.1173C32.3787 45.8144 31.2629 44.3966 31.6335 42.655L37.6656 14.2201C38.0362 12.4784 39.7512 11.0607 41.4899 11.0607H76.9727ZM77.8125 7.11133H42.3297C38.4107 7.11133 34.5589 10.2944 33.723 14.2201L27.691 42.655C26.8591 46.5806 29.3587 49.7637 33.2776 49.7637H68.7604C72.6793 49.7637 76.5311 46.5806 77.3669 42.655L83.399 14.2201C84.2309 10.2944 81.7313 7.11133 77.8125 7.11133Z" fill="#A2E7C6"/>
<path d="M70.4722 32.6675L70.0268 33.0348C69.1357 33.7694 68.162 34.3539 67.1487 34.7725L66.2301 39.1009C65.8161 41.0558 63.8804 42.6553 61.9288 42.6553C59.9773 42.6553 58.7196 41.0558 59.1335 39.1009L59.8865 35.5466C60.3005 33.5917 62.2363 31.9922 64.1879 31.9922H70.3343C70.6851 31.9922 70.7679 32.4187 70.4684 32.6675H70.4722Z" fill="#A2E7C6"/>
<path fill-rule="evenodd" clip-rule="evenodd" d="M40.0721 35.9523L39.6758 33.6162C41.8528 33.2456 43.7853 33.7922 45.1615 34.9268C46.5646 36.0836 47.4143 37.8618 47.3364 40.0048L44.9725 39.9187C45.0701 37.2298 42.8571 35.4781 40.0721 35.9523Z" fill="#A2E7C6"/>
<path d="M33.6588 11.0607C33.915 11.0607 34.0767 11.1199 34.1201 11.1712C34.1674 11.2265 34.2305 11.4358 34.1477 11.8189L31.2972 25.2465C29.7478 32.5409 22.3201 38.7056 15.0736 38.7056H8.11512L13.473 13.4618C13.7332 12.2296 15.1131 11.0607 16.3077 11.0607H33.6548M33.6628 7.11133H16.3117C13.264 7.11133 10.2677 9.58753 9.61723 12.6403L3.25 42.655H15.0776C24.2243 42.655 33.2133 35.2303 35.1569 26.0679L38.0074 12.6403C38.654 9.58753 36.7103 7.11133 33.6628 7.11133Z" fill="#A2E7C6"/>
<path d="M103.836 11.0607C104.092 11.0607 104.254 11.1199 104.297 11.1712C104.344 11.2265 104.407 11.4358 104.325 11.8189L98.6197 38.7056H89.9856C86.8433 38.7056 84.1782 37.5446 82.475 35.4396C80.6929 33.2359 80.1016 30.1989 80.8034 26.8894L83.6538 13.4618C83.914 12.2296 85.2939 11.0607 86.4885 11.0607H103.836ZM103.836 7.11133H86.4885C83.4409 7.11133 80.4446 9.58753 79.794 12.6403L76.9436 26.0679C75 35.2303 80.8388 42.655 89.9816 42.655H101.809L108.176 12.6403C108.823 9.58753 106.879 7.11133 103.832 7.11133H103.836Z" fill="#A2E7C6"/>
<path d="M22.1728 53.2031L21.3803 56.9312L21.1596 57.966L18.3643 71.1329C18.2697 71.5712 18.112 71.9939 17.8952 72.3887C17.0357 73.9763 15.2971 75.1217 13.5348 75.1217H0L1.21824 69.7348H9.89971C10.1994 69.7348 10.4951 69.6519 10.7631 69.5097C11.2875 69.2333 11.7054 68.7239 11.8316 68.1393L15.0014 53.2031H22.1728Z" fill="#A2E7C6"/>
</g>
<defs>
<clipPath id="clip0_3303_81">
<rect width="113" height="75" fill="white"/>
</clipPath>
</defs>
</svg>
